<?xml version="1.0" encoding="utf-8"?>
<!-- Generator: Adobe Illustrator 24.0.2, SVG Export Plug-In . SVG Version: 6.00 Build 0)  -->
<svg version="1.1" id="Capa_1" xmlns="http://www.w3.org/2000/svg" xmlns:xlink="http://www.w3.org/1999/xlink" x="0px" y="0px"
	 viewBox="0 0 500 500" style="enable-background:new 0 0 500 500;" xml:space="preserve">
<style type="text/css">
	.st0{fill:#FFFFFF;}
	.st1{fill:#1A1A1A;}
	.st2{fill:#4D4D4D;}
	.st3{fill:#808080;}
</style>
<rect class="st0" width="500" height="500"/>
<g>
	<g>
		<path d="M127.6,321.7c-1.9,2.6-3.3,5.3-5.4,7c-4.5,3.7-9,7.8-14.2,10.2c-7.8,3.5-15.1-0.3-18.2-8.2C84,316,91.9,290.3,105,281.5
			c5.9-3.9,13.2-3.6,16.4,0.7c6.5,8.9,6.5,16.7-0.2,21.9c-1.7,1.3-3.5,2.6-5.5,3.4c-1.3,0.5-2.9,0.2-4.4,0.3
			c0.2-1.3,0.1-2.8,0.7-3.9c1.4-3,3.5-5.7,4.7-8.8c1-2.7,1-5.7,1.4-8.6c-0.4-0.3-0.9-0.5-1.3-0.8c-1.4,1-3.1,1.7-4.1,3
			c-8.6,10.1-12.3,22.1-12.5,35.1c-0.1,4.8,4.3,8.1,9.4,6.9c2.8-0.6,5.9-2.1,7.8-4.1c5.1-5.8,9.5-12.3,14.5-18.2
			c2.7-3.2,6-5.9,8.9-9c0.7-0.7,1.2-1.8,1.5-2.8c1.1-3.3,1.6-6.8,3.1-9.9c2.2-4.8,5.9-6.3,11-5.2c9.6,2.1,15.8,11.1,14.7,22
			c-0.4,3.8-1.4,7.6-2.1,11.4c5.2-0.9,12.9-7.7,15.3-13.8c1.7-4.1,3-8.4,4.5-12.6c1.2-3.2,1.4-7.1,5.9-7.6c2.9-0.3,8.4,4.4,9.6,7.8
			c0.2,0.5,0.2,1.1,0.4,2.7c1.6-2.1,2.8-3.6,3.9-5.2c2.2-3.1,4.8-3.9,8.2-1.8c5.4,3.3,6.6,5.7,5,9.9c-1.7,4.4-3.3,8.8-4.9,13.2
			c0.3,0.1,0.7,0.3,1,0.4c2.4-4.2,4.6-8.5,7.1-12.6c2.1-3.4,4.5-6.7,6.8-10c1.8-2.6,4.1-2.8,6.8-1.3c7,3.7,8,7.1,4.7,14.4
			c-3.9,8.7-7.5,17.5-11,26.3c-0.6,1.5,0.1,3.6,0.2,5.4c1.8-0.5,4.4-0.4,5.3-1.5c4.8-6.3,10.3-12.4,13.4-19.5
			c3.8-8.7,5.5-18.4,8.2-28.1c3.8,1,6.8,4.5,10.1,7.9c4.2,4.4,1.7,8.5,0.7,13.2c2.8-3.5,5.5-6.9,8.3-10.4c4.6-5.8,10.2-9.2,17.9-8.7
			c3.7,0.2,6,1.8,7.5,4.9c2.2,4.6,2.8,9.6,0.9,14.3c-7,16.6-17.9,29.2-36.3,33.5c-1.7,0.4-3.5,0.8-5.1,0.5c-4.5-0.7-5.9,1.7-6.8,5.6
			c-2.6,11.2-5.4,22.4-8.3,33.6c-0.4,1.5-1.7,2.7-2.5,4c-1.3-1-3-1.7-3.9-3c-4.4-7-4.7-14.9-3-22.6c1.9-8.8,4.6-17.5,7.3-27.3
			c-2.2,2.8-3.9,4.6-5.3,6.7c-2.8,3.9-6.7,4.7-11.1,4.2c-4.8-0.6-7.4-3.1-6.8-7.8c1.2-9,3-17.8,4.7-26.7c0.2-1.2,0.7-2.4,1.1-3.5
			c-0.4-0.3-0.8-0.5-1.3-0.8c-2.4,4-4.8,8-7.1,12c-2.5,4.4-5.4,8.6-7.2,13.3c-1.7,4.5-2.3,9.4-3.4,14.2c-4.5-0.3-8.8-4.7-7.8-9.6
			c1.9-9.2,4.4-18.2,6.7-27.2c0.5-2,1.2-3.9,1.8-5.8c-0.4-0.2-0.8-0.4-1.1-0.6c-1.3,1.6-2.7,3.1-3.7,4.8c-5.1,8.8-10.3,17.6-15,26.7
			c-1.6,3.1-1.9,6.9-2.3,10.4c-0.4,3.4-1.9,3.6-4.3,2.1c-3.4-2.1-5.4-5.2-5.5-9.3c-0.2-4.8,0-9.7,0-13.8c-3.4,1.6-7.7,3.6-11.8,5.8
			c-1,0.5-1.7,1.9-2.5,2.8c-3.5,4-6.6,8.5-10.7,11.7c-9.5,7.4-20.1,3.7-23.8-7.8C128.5,326.4,128.2,324.2,127.6,321.7z M260.3,328.5
			c0.3,0.4,0.5,0.8,0.8,1.3c3.4-1.3,7.1-2,10-3.9c9.2-6,16-14,18.6-24.9c0.6-2.5,0.1-5.3,0.1-8c-2.4,1.3-5.5,2-7.1,4
			c-7,8.2-13.6,16.7-20.1,25.3C261.3,323.9,261,326.4,260.3,328.5z M155,315c2.1-7.4,2.7-13.9,0.9-20.5c-0.8-3-2.6-4.6-5.8-3.2
			c-3.1,1.4-5.2,7.9-3.6,11c0.6,1.1,1.6,2.4,1.5,3.4C147.3,311,151.2,312.4,155,315z M144.1,314.3c-2.7,4.3-3.1,8.9-2,13.5
			c0.3,1.2,1.4,2.8,2.5,3.1c1,0.3,2.8-0.7,3.5-1.6c1.8-2.5,3.3-5.3,4.8-7.8C149.8,318.9,147.1,316.7,144.1,314.3z"/>
		<path d="M272.3,104.6c-2.3,2.1-4.6,3.6-6.2,5.6c-6.8,8.7-10.3,18.6-11,29.6c-0.4,5.9,4.3,10.2,10,8.3c4-1.3,8.1-3.9,11-7.1
			c7.7-8.3,12.1-18.5,14.7-29.5c0.8-3.4,1.7-6.7,2.6-10.1c0.9-3.2,3-4,6-2.8c7.1,2.7,8.8,6.8,6.3,14c-3.4,9.6-6.6,19.4-9.8,29.1
			c-0.5,1.6,0.1,3.5,0.1,5.3c1.7-0.6,3.7-0.8,4.9-1.8c7.8-6.9,14.5-14.6,19.5-24c3.5-6.7,8.1-13,13.2-18.5c2.6-2.8,7.5-4.4,11.5-5
			c7.6-1.1,13,5.2,11.5,12.8c-0.5,2.4-0.2,3.8,1.6,5.1c4,2.9,4.1,6.4,1.9,10.6c-2.4,4.6-4.7,9.3-6.5,14.1c-0.7,1.8,0.2,4.2,0.4,6.4
			c2.2-0.7,5.4-0.6,6.3-2.1c5.1-7.8,9.6-15.9,14.2-24.1c0.5-0.9-0.2-2.5-0.3-3.8c-0.2-4-1-8.1-0.4-12c1.6-11.6,15.8-17.3,25.4-10.5
			c5.4,3.8,7,11.4,3.6,17c-2.4,3.9-5.7,4.8-10.3,2.5c0.7-1.2,1.9-2.3,2.1-3.5c0.5-2.9,1-5.9,0.5-8.7c-0.3-1.4-2.8-2.3-4.3-3.4
			c-1,1.5-2.9,3-3,4.6c-0.5,6.5,0.4,13,3.6,18.9c2.6,4.7,5.1,9.3,7.8,14.2c9.7-0.9,13.7-9.4,19.2-15.8c3.3,1.7,2.4,3.7,1,5.8
			c-5,7.5-9,10.8-17.4,14.9c-1.7,7.4-2.4,14.2-5,20.3c-5.5,13-16.6,14.3-28.5,8.1c-7-3.6-7.2-16.6-0.5-22.8c2.7-2.5,6.3-3.9,9.6-5.7
			c1.5-0.8,3.2-1.2,5.2-2c-1.8-4.1-3.4-7.8-5.4-12.1c-3,4.9-5.3,9.4-8.2,13.4c-3.1,4.3-6.3,8.7-10.2,12.2
			c-6.9,6.2-13.6,3.5-15.1-5.7c-0.2-1.4-0.3-2.8-0.6-5c-3.8,6.8-7.2,13.4-15.8,11.7c-7.8-1.5-10.8-7.5-11.5-15.7
			c-3.4,3.7-6.2,6.8-9.2,9.8c-2,2.1-4.1,4.1-6.4,5.8c-7.3,5.4-15.8,1.6-16.7-7.5c-0.2-1.7-0.2-3.4-0.3-6.3c-1.4,1.7-2.2,2.7-3,3.7
			c-4.3,5.8-9.5,10.5-16.4,12.9c-10.6,3.6-19.2-1.7-20.9-12.7c-0.2-1.5-0.4-3-0.7-5.2c-2.8,3.7-5.2,6.9-7.7,10
			c-1.2,1.4-2.5,2.8-3.9,4c-2.9,2.5-6.1,4.8-10.2,2.9c-3.9-1.7-4.9-5.4-5.4-9.2c-0.1-1.1-0.1-2.2-0.3-4.4c-1.5,2.5-2.5,4.2-3.5,5.8
			c-3.4,5.2-7.6,7.4-12.7,6.2c-5.5-1.3-9.8-4.8-10.3-10.4c-0.5-5.6-0.7-11.9,1.4-16.9c3.3-7.7,8.2-14.8,13.1-21.6
			c3.2-4.4,8.3-6.6,14-6.7c7.2-0.1,12.5,5.7,11,12.7c-0.5,2.6-0.2,4,1.7,5.5c3.7,2.9,4,6.2,1.8,10.2c-2.3,4.3-4.3,8.8-6.3,13.3
			c-1.1,2.5-2.7,5.5,0.4,7.4c3,1.9,5.5-0.6,6.9-2.8c4.4-6.9,8.3-14.1,12.4-21.1c3.4-5.8,6.6-11.7,10.2-17.3c1.1-1.7,3.1-3,4.9-4.2
			c4.5-2.8,9.8-4.5,14.3-1.8c4.9,2.9,7.4,8.4,7.5,14.4c0.1,5.2-8,13-13.3,13c-2.6,0-2.9-1.5-1.8-3.5c1.5-2.6,3.4-5.1,4.8-7.7
			C273.3,112.5,274.6,109.1,272.3,104.6z M222.9,115.3c-0.7-2.3-1.9-4.1-1.4-5c1-1.8,2.4-3.5,0-4.5c-1.2-0.5-3.7,0.8-4.8,2
			c-7.7,8.7-12.7,18.8-14.7,30.3c-0.4,2.1-0.4,4.4,0.3,6.4c0.8,2.6,2.8,3.2,4.9,1c0.8-0.8,1.4-1.8,1.9-2.8
			C213.8,133.3,218.6,123.9,222.9,115.3z M330,142c0.7,1.1,1.8,2.9,2.9,4.7c1.5-1.2,3.3-2,4.3-3.5c2.8-4.2,6.5-8.3,7.5-13
			c1.4-6.5,8-11.7,5-19.3c-0.1-0.3,0.7-0.9,0.7-1.4c0.1-1.2,0-2.5-0.1-3.7c-1.3,0.2-3.1-0.1-3.8,0.7C337.6,116.1,332,127.5,330,142z
			 M384.1,145c-4,2.9-8.1,5-11.1,8.2c-1.4,1.5-1.6,5.3-0.8,7.3c1.2,2.9,4.3,2.1,6.8,0.8C385.1,158.3,386.6,154.1,384.1,145z"/>
		<path d="M117.9,118.2c-2.6,3.3-4.9,6.8-7.8,9.8c-4.7,4.9-10.2,9-17.5,7.1c-7.3-1.9-10.4-8-12-14.7C77.5,107.8,80,95.7,85,84.1
			c4.9-11.5,12.4-21.1,22.5-28.5c2.1-1.5,4.3-2.9,6.7-4c10.2-4.5,20.6,1.2,22.5,12.2c2.3,13.6-8.3,28.6-22,30.6
			c-1.4,0.2-2.9-0.5-4.4-0.8c0.4-1.4,0.3-3.1,1.1-4.2c3.2-4.5,6.9-8.6,9.8-13.2c2.3-3.6,3.8-7.7,5.2-11.8c0.5-1.6-0.4-3.7-0.6-5.6
			c-1.7,0.8-3.8,1.3-4.9,2.6c-10.9,12.4-18.8,26.6-23.4,42.5c-1.1,3.9-2,7.8-2.8,11.8c-0.4,2.1-0.5,4.4,0,6.4c0.5,1.9,1.5,4.3,3,5.2
			c0.8,0.5,3.8-1.1,4.8-2.5c5.4-7.2,10.5-14.7,15.7-22.1c0.6-0.8,0.9-1.8,1.4-2.7c2-3.3,3.9-6.7,8.6-6c3.8,0.5,7.4,4.7,7.9,9.3
			c0.2,2,0.2,4.1-0.4,6c-4.8,14.6-9.4,29.4-14.9,43.7c-2,5.2-5.8,10-9.6,14.2c-5.6,6.2-13.9,7-19.6,2.9c-5.9-4.2-8.1-12.7-4.4-19.8
			c2-3.8,5.3-7.1,8.4-10.1c1-0.9,3.6-0.2,5.5-0.2c0,1.7,0.4,3.6-0.2,5.1c-1.2,2.8-3.3,5.1-4.4,7.9c-1.1,2.9-1.8,6-2,9.1
			c-0.1,1.2,1.4,2.6,2.1,3.8c1.1-0.8,2.3-1.5,3.3-2.3c0.4-0.3,0.7-0.9,1-1.4C108.8,148.4,113.8,133.6,117.9,118.2z"/>
		<path d="M318.2,183.5c7.1,0,13.4,0,19.7,0c2.3,0,5.1-0.2,5.2,3.1c0,3.2-2.5,4.5-5.3,4.5c-6.1,0-12.1-0.1-18.2-0.5
			c-3.2-0.2-4.5,0.8-5.5,3.9c-3.5,11.4-7.3,22.8-10.8,34.2c-0.6,1.9-1,4-0.9,5.9c0.1,1.5,0.8,4.2,1.6,4.3c1.5,0.3,4-0.3,4.9-1.5
			c4-4.7,8.3-9.4,11.1-14.8c3.7-7.4,6.2-15.4,9.1-23.2c1.8-4.7,2.5-5,6.6-2c6.3,4.6,6.2,5.7,3.1,12.9c-3.7,8.7-6.8,17.7-9.8,26.7
			c-0.5,1.5,0.4,3.4,0.7,5.1c1.5-0.8,3.8-1.3,4.5-2.5c4.3-7.6,8.5-15.3,12.1-23.3c2.9-6.5,4.8-13.5,7.7-21.6
			c3.7,3.2,6.8,5.4,9.2,8.3c0.9,1.1,0.3,3.8-0.4,5.5c-3.2,7.7-6.7,15.3-9.9,23c-0.8,1.9-1.1,4.2-1.2,6.3c-0.2,3.1,1.8,4,4.2,2.6
			c2.2-1.3,4.2-3.1,5.8-5.1c3-3.7,5.6-7.7,8.2-11.7c0.9-1.3,1.4-2.8,2.1-4.1c0.7,0.6,1.4,1.1,2.1,1.7c-0.3,1.1-0.5,2.3-1.1,3.2
			c-4.3,6.3-8.7,12.5-13.2,18.7c-0.9,1.3-2.2,2.3-3.4,3.3c-5.6,4.4-12.4,1.8-13.8-5.2c-0.3-1.4-0.3-2.8-0.6-5.1
			c-1.2,1.5-2,2.4-2.7,3.3c-1.8,2.1-3.2,4.8-5.5,6c-2.6,1.3-6.1,2.2-8.8,1.6c-3.7-0.8-5.1-4.4-5.4-8.1c-0.2-2.3,0-4.5,0-7.7
			c-3.1,4.1-5.8,7.6-8.5,11c-1.1,1.3-2.2,2.7-3.6,3.7c-6.5,5.1-14.5,2.4-15.6-5.8c-0.6-4.7-0.3-9.8,0.7-14.5
			c2.1-10.6,4.9-21.1,7.3-31.6c0.3-1.2,0.5-2.5,0.7-3.7c-4.4-0.9-8.5-1.7-12.6-2.5c0-0.7,0-1.3-0.1-2c3-0.5,6.1-1.5,9.1-1.5
			c4.1-0.1,6.1-1.4,7-5.7c1-4.9,2.9-9.7,4.4-14.5c1.3-3.8,2.2-4.1,5.5-1.6c7.2,5.4,8.2,8.5,5.5,17.1
			C319,180.7,318.8,181.5,318.2,183.5z"/>
		<path d="M223.5,225.5c5.2-1.9,8.7-4.4,10.2-9.3c1.6-5.4,3.6-10.7,5.3-16c1.8-5.5,3.5-7,6.8-6c5.1,1.6,8.2,6.3,6.8,10.9
			c-0.8,2.4-2,4.7-3.3,7.6c5.2-5.9,10-11.4,14.8-16.7c3.7-4.1,4.8-4.1,9-0.6c1.3,1.1,2.8,2.1,3.8,3.5c0.7,1,1.3,2.9,0.8,3.8
			c-2.8,5.9-6,11.6-9.1,17.5c-5.5-1.6-7.1-4.8-6.8-14c-0.3-0.2-0.7-0.4-1-0.6c-7.3,13-14.8,25.9-21.8,39c-1.6,3-2.6,2.8-4.8,1.2
			c-3.2-2.3-4.5-5.6-4.6-9.3c-0.1-3,0-6,0-9.3c-5,2.3-9.9,4-13,9.5c-1.9,3.4-5.6,6.2-9,8.5c-6.1,4-11.9,2.7-16.3-3
			c-8-10.2-2.4-25.7,6.5-31.7c1-0.7,1.9-1.8,2.3-2.9c0.9-2.4,1.2-5.1,2.2-7.4c2.6-6.3,7.1-7.9,13.3-5.1c7.7,3.4,11.5,11.4,10.1,21
			C225.1,219,224.3,221.9,223.5,225.5z M210.8,224.1c0.5-0.1,1.1-0.2,1.6-0.3c0-5.8,0.2-11.6-0.1-17.4c-0.1-1.3-1.9-3.5-3-3.5
			c-1.5,0-3.4,1.3-4.3,2.6c-1.1,1.6-1.6,3.8-1.6,5.7c0,1.7,1.9,3.5,1.7,5.1C204.9,220.8,207.8,222.4,210.8,224.1z M202,224.2
			c-0.5,0-1,0-1.5,0c-0.2,4-0.6,8.1-0.5,12.1c0,1.1,1.4,2.6,2.5,3c0.7,0.3,2.3-0.9,2.9-1.8c1.5-2.2,2.8-4.6,4.1-6.9
			C206.7,228.2,204.3,226.2,202,224.2z"/>
		<path d="M146.3,189.2c3.4,3,6.5,5.8,9.6,8.6c4.1,3.7,1.9,7.8,1.1,12.2c2.5-3.1,4.9-6.3,7.4-9.4c4.3-5.4,9.5-8.7,16.7-8.4
			c3.8,0.2,6.2,1.8,7.7,5.2c2.1,5.1,2.2,10.3-0.2,15.1c-8.5,16.9-20.2,29.5-40.7,30.3c-1.2,0-3.1,1.9-3.4,3.3
			c-2.9,10.8-5.5,21.8-8.4,32.6c-0.4,1.6-1.6,3-2.5,4.6c-1.4-1.2-3.4-2.2-4.2-3.8c-4.2-7.5-3.9-15.6-1.7-23.5
			c4.8-16.9,10-33.7,14.9-50.6C144,200.6,144.8,195.6,146.3,189.2z M147.1,236.6c4.2-1.4,7.6-1.9,10.2-3.6
			c8.7-5.6,15.4-13,17.9-23.4c0.6-2.6,0.2-5.4,0.3-8.1c-2.4,1.3-5.4,2-7.1,3.9c-6.5,7.7-12.6,15.7-18.7,23.7
			C148.6,230.8,148.3,233.1,147.1,236.6z"/>
		<path d="M390.7,296.7c7.1,7.3,7.1,7.3,2.6,16.7c-1.8,3.9-3.9,7.8-5.2,11.9c-0.5,1.7,0.7,3.9,1.1,5.8c1.8-0.5,4.4-0.4,5.3-1.6
			c4.2-5.6,8-11.6,11.8-17.4c0.6-1,0.8-2.3,1.6-3c0.7-0.6,2.1-0.8,3-0.5c0.5,0.2,1.1,1.9,0.8,2.5c-5.5,10.1-10.3,20.8-20.4,27.4
			c-4.9,3.2-10,1-11.9-4.8c-0.7-2.3-0.9-4.7-1.5-7.7c-1.2,2-2.1,3.6-3,5.2c-3,4.8-7,7.8-12.9,6.6c-5.7-1.1-9.9-4.8-10.7-10.5
			c-0.7-5-0.6-10.5,0.6-15.3c2.4-9.7,7.8-18,14.9-25c2.2-2.2,5.1-4,7.9-5c4.4-1.6,9.3-2.3,13.1,1.4
			C391.5,286.8,392.5,291.6,390.7,296.7z M364.4,326.4c0.7,1.1,1.7,2.8,2.8,4.5c1.6-1.2,3.6-2,4.7-3.6c4.7-7.1,9.1-14.4,11-22.9
			c0.7-3.1,5-5.7,1.6-9.5c-0.2-0.3,0.5-1.2,0.6-1.9c0.1-1.3-0.1-2.6-0.1-4c-1.3,0.3-3,0.1-3.8,0.8
			C371.8,299.9,366.3,311.7,364.4,326.4z"/>
		<path d="M160.6,116.7c5.6-6.9,10.7-13.4,16-19.7c3.5-4.2,4.6-4.1,9-0.9c0.7,0.5,1.4,1,2.1,1.6c5.2,4.2,5,4.3,1.8,10.2
			c-2.2,4-3.5,8.5-5.2,12.7c-0.5,1.3-0.8,2.6-1.1,4c-7.1-2.1-8.8-5.1-10-15.9c-6.7,12.5-13.5,24.9-20.1,37.4
			c-1.1,2.1-2.1,4.5-2.6,6.8c-0.7,3.2-2.5,2.8-4.4,1.7c-3.4-2-5.9-5-5.9-9c0-5.8,0.1-11.8,1.3-17.5c1.9-8.4,4.8-16.6,7.2-24.9
			c1.6-5.6,3.3-7.5,6.7-6.8c5.5,1.2,9.8,6.5,8.6,11.1C163.3,110.5,161.9,113.3,160.6,116.7z"/>
		<path d="M325.6,303.3c5.4-6.1,10.4-12,15.6-17.8c4-4.3,5.1-4.3,9.7-0.4c0.9,0.7,1.7,1.6,2.6,2.3c2.8,2.2,2.8,4.3,0.9,7.4
			c-3.1,5.2-5.5,10.9-8.3,16.5c-5.7-1.1-7.7-4.7-7.5-14.8c-0.4-0.2-0.7-0.4-1.1-0.6c-7.7,13.7-15.7,27.3-23,41.3
			c-1.7,3.3-3.3,3.1-5,1.3c-2-2.2-4.4-5.1-4.6-7.9c-0.4-5.2,0-10.7,1.3-15.7c2.3-8.5,5.5-16.7,8.4-25c1.1-3.2,1.7-7.3,6.6-6.2
			c5.1,1.1,9,6.5,7.8,10.8C328.3,297.3,326.8,300.2,325.6,303.3z"/>
		<path d="M307.1,75.5c2.9-0.7,5.4-1.2,7.8-1.8c-0.6,2.5-0.8,5.2-2,7.3c-1.7,3.1-4,6-6.2,8.8c-2.1,2.6-4.8,2.4-5.5-0.7
			c-1.3-6.3-1.8-12.7-2.3-19.1c-0.1-1,1.8-3,2.8-3.1c1.1-0.1,2.8,1.4,3.5,2.6C306.2,71.5,306.6,73.9,307.1,75.5z"/>
	</g>
	<g>
		<path class="st1" d="M195.7,416.6c9.2-0.2,21.2,1.4,32.4,7c6,3,11,7,14.6,12.9c3.6,6,10.8,6.6,14.3,0.9
			c9.3-15.3,24.6-18.8,40.5-20.4c16.8-1.7,33.4,0.6,49.8,5c3,0.8,7.6,1.2,6.7,5.6c-1.1,5.1-5.5,3.1-8.8,2.4
			c-17.7-3.8-35.4-7.1-53.5-3.7c-11.5,2.1-21.7,5.6-28.3,16.8c-5.2,8.8-20.4,9.4-25.6,0.7c-8.9-14.8-22.9-17.4-37.8-18.7
			c-13.8-1.2-27.3,1.1-40.7,4.1c-2.2,0.5-4.4,1.2-6.7,1.5c-2.6,0.4-5.4,0.3-6.2-2.8c-0.8-3.3,1.8-4.5,4.3-5.2
			C164.3,418.7,178.3,416.6,195.7,416.6z"/>
		<path class="st2" d="M243.2,427.9c-3.9-2.5-7.7-5.3-11.8-7.5c-20.5-11-42.3-11.1-64.6-7c-4.2,0.8-8.4,2-12.6,3
			c-1.2,0.3-2.7,0.9-3.5-0.3c-1.2-1.5,0.1-2.8,0.9-4.1c1.3-1.9,2.9-3.6,5.3-4.2c25-5.8,49.8-7.8,73.2,5.6
			C235.8,416.7,240.5,421.3,243.2,427.9z"/>
		<path class="st2" d="M256.6,427.5c9-14.2,22.7-20.1,38.4-22.8c14.8-2.5,29.3-0.6,43.8,2c5.5,1,10,3.1,11.2,10.4
			C317.3,408.7,285.5,405.7,256.6,427.5z"/>
		<path class="st3" d="M254,417.9c3.1-7.9,9.2-12.9,16.4-16.8c16.1-8.7,33.4-9.4,51.1-8.5c2.1,0.1,4,0.9,5.3,2.6
			c1,1.4,2.8,2.7,2.1,4.6c-1,2.3-3.1,1-4.7,0.8c-19.6-3.2-38.3-1.2-56.3,7.8C262.8,410.9,258.6,414.4,254,417.9z"/>
		<path class="st3" d="M246.5,418.1c-13.2-12-29.2-16.6-46.2-18.7c-8.2-1-16.2,0.6-24.2,1.3c-1.6,0.1-3.8,1.5-4.7-0.8
			c-0.7-1.9,1.1-3.2,2.1-4.6c1.1-1.5,2.7-2.4,4.5-2.5c20.6-1.2,40.7-0.2,58.3,12.5C240.8,408.5,244.6,412.4,246.5,418.1z"/>
	</g>
</g>
</svg>
