<?xml version="1.0" encoding="utf-8"?>
<!-- Generator: Adobe Illustrator 24.0.2, SVG Export Plug-In . SVG Version: 6.00 Build 0)  -->
<svg version="1.1" id="Capa_1" xmlns="http://www.w3.org/2000/svg" xmlns:xlink="http://www.w3.org/1999/xlink" x="0px" y="0px"
	 viewBox="0 0 700 224.3" style="enable-background:new 0 0 700 224.3;" xml:space="preserve">
<style type="text/css">
	.st0{fill:#145075;}
	.st1{fill:#2692CA;}
	.st2{fill:#37BEE2;}
</style>
<g>
	<path class="st0" d="M180.1,89.4c28.8-0.5,66.2,4.5,101.3,21.9c18.9,9.3,34.3,21.9,45.5,40.4c11.3,18.8,33.9,20.5,44.8,2.7
		c29.2-47.9,76.9-58.8,126.5-63.8c52.5-5.2,104.6,2,155.6,15.7c9.4,2.5,23.8,3.7,20.9,17.6c-3.4,15.8-17.1,9.8-27.6,7.5
		c-55.3-11.9-110.6-22.1-167.4-11.6c-35.9,6.6-67.9,17.5-88.5,52.5c-16.2,27.5-63.8,29.4-80,2.3c-27.7-46.2-71.7-54.4-118.1-58.5
		c-43-3.7-85.5,3.4-127.4,12.7c-7,1.6-13.8,3.8-20.9,4.8c-8.1,1.2-17,1-19.4-8.9c-2.4-10.2,5.6-14,13.5-16.3
		C81.8,96.1,125.6,89.5,180.1,89.4z"/>
	<path class="st1" d="M328.4,124.7c-12.3-7.9-24-16.7-36.9-23.6C227.3,66.6,159.1,66.4,89.6,79.2c-13.2,2.4-26.2,6.3-39.4,9.4
		c-3.8,0.9-8.3,2.9-11.1-0.8c-3.6-4.8,0.3-8.9,2.9-12.7c4.2-6,9.2-11.3,16.5-13c78.2-18,155.6-24.3,229,17.6
		C305.4,89.8,319.9,104.1,328.4,124.7z"/>
	<path class="st1" d="M370.5,123.5c28.2-44.5,70.9-63,120-71.3c46.2-7.8,91.7-2,137.1,6.1c17.1,3,31.3,9.8,34.9,32.6
		C560.1,64.8,460.9,55.3,370.5,123.5z"/>
	<path class="st2" d="M362.2,93.7c9.6-24.7,28.8-40.4,51.3-52.5c50.2-27.1,104.6-29.5,159.8-26.5c6.6,0.4,12.5,2.8,16.5,8.2
		c3.2,4.3,8.9,8.4,6.5,14.3c-3,7.1-9.7,3.2-14.7,2.4C520.4,29.5,461.7,36,405.7,64C389.9,71.8,376.5,82.6,362.2,93.7z"/>
	<path class="st2" d="M338.9,94.1c-41.2-37.5-91.2-51.8-144.6-58.4c-25.7-3.2-50.6,1.8-75.8,4c-5,0.4-11.8,4.7-14.6-2.6
		c-2.3-5.9,3.4-10,6.6-14.3c3.5-4.6,8.5-7.4,14.2-7.8c64.4-3.9,127.3-0.5,182.2,39.1C321,64.2,332.9,76.5,338.9,94.1z"/>
</g>
</svg>
